<svg xmlns="http://www.w3.org/2000/svg" width="142.639" height="22.294" viewBox="0 0 142.639 22.294"><defs><style>.a{fill:#e95542;}.b{fill:#1d1d1b;}</style></defs><g transform="translate(-177.66 -175)"><path class="a" d="M427.2,209.872a1.675,1.675,0,1,1,1.035,1.514,1.675,1.675,0,0,1-1.035-1.514" transform="translate(-110.216 -14.677)"/><path class="b" d="M229.5,175.13h9.268v.419h-3.333l6.661,17.4,6.571-17.4H245.4v-.419h6.482v.419h-2.7l-8.068,21.389h-.754L232.2,175.549h-2.7Z" transform="translate(-22.897 -0.057)"/><path class="b" d="M266.321,195.436v1.413a19.3,19.3,0,0,0,.123,2.071,6.26,6.26,0,0,0,.525,1.949,3.613,3.613,0,0,0,1.2,1.44,3.551,3.551,0,0,0,2.111.558,5.315,5.315,0,0,0,2.177-.391,4.059,4.059,0,0,0,1.351-.944,4.237,4.237,0,0,0,.737-1.117c.156-.38.279-.687.357-.932l.452.095a9.606,9.606,0,0,1-.346.944,4.467,4.467,0,0,1-.81,1.228,4.958,4.958,0,0,1-1.5,1.083,5.583,5.583,0,0,1-2.445.463,7.872,7.872,0,0,1-2.792-.48,6.214,6.214,0,0,1-3.663-3.506,7.259,7.259,0,0,1-.508-2.792,6.527,6.527,0,0,1,.525-2.568,7.38,7.38,0,0,1,1.44-2.233,7.147,7.147,0,0,1,2.144-1.541,6.068,6.068,0,0,1,2.641-.586,6,6,0,0,1,1.8.3,5.282,5.282,0,0,1,1.787.971A5.36,5.36,0,0,1,275,192.649a6.142,6.142,0,0,1,.558,2.758Zm6.181-.419a5.658,5.658,0,0,0,.056-.782v-.748a5.907,5.907,0,0,0-.2-1.675,2.73,2.73,0,0,0-.558-1.05,1.9,1.9,0,0,0-.843-.558,3.3,3.3,0,0,0-1.061-.168,3.121,3.121,0,0,0-1.675.408,2.909,2.909,0,0,0-1.05,1.117,5.471,5.471,0,0,0-.558,1.591,11.836,11.836,0,0,0-.257,1.887Z" transform="translate(-37.82 -6.444)"/><path class="b" d="M286.372,202.52h2.311V190.494h-2.311v-.419h4.807v3.21h.061c.123-.262.3-.592.525-.994a5.519,5.519,0,0,1,.944-1.167,5.75,5.75,0,0,1,6.918-.419,3.591,3.591,0,0,1,1.245,3.06v8.755h2.311v.424h-7.2v-.424h2.311v-9.687a3.121,3.121,0,0,0-.558-1.921,2,2,0,0,0-1.72-.748,4.171,4.171,0,0,0-1.831.419,4.712,4.712,0,0,0-1.53,1.172,5.5,5.5,0,0,0-1.039,1.77,6.326,6.326,0,0,0-.374,2.233v6.778h2.311v.424h-7.2Z" transform="translate(-48.006 -6.511)"/><path class="b" d="M316.088,187.089h2.306v-3.875q.24.089.452.151a2.724,2.724,0,0,0,.72.061,2.524,2.524,0,0,0,.782-.106,1.994,1.994,0,0,0,.631-.341v4.109h4.254v.419h-4.254v9.81a4.59,4.59,0,0,0,.162,1.362,2.082,2.082,0,0,0,.436.81,1.267,1.267,0,0,0,.586.38,2.369,2.369,0,0,0,.614.089,2.133,2.133,0,0,0,1.675-.765,3.735,3.735,0,0,0,.821-1.759l.419.151a5.8,5.8,0,0,1-.268.871,3.088,3.088,0,0,1-.558.916,2.909,2.909,0,0,1-.977.72,3.5,3.5,0,0,1-1.5.285,4.458,4.458,0,0,1-3.132-.871,3.288,3.288,0,0,1-.888-2.457v-9.542H316.06Z" transform="translate(-61.128 -3.525)"/><path class="b" d="M348.068,203.209h-4.829V200.2h-.061a11.686,11.686,0,0,1-.642,1.217,5.165,5.165,0,0,1-.932,1.117,4.724,4.724,0,0,1-1.29.81,4.428,4.428,0,0,1-1.725.313,5.891,5.891,0,0,1-1.949-.268,4.975,4.975,0,0,1-1.172-.558,5.254,5.254,0,0,1-.463-.374,2.233,2.233,0,0,1-.463-.614,4.214,4.214,0,0,1-.363-1,6.461,6.461,0,0,1-.151-1.513v-8.565H331.72v-.419h4.891v9.207a9.563,9.563,0,0,0,.1,1.44,3.187,3.187,0,0,0,.408,1.156,2.233,2.233,0,0,0,.782.782,2.434,2.434,0,0,0,1.256.285,2.859,2.859,0,0,0,1.368-.391,4.506,4.506,0,0,0,1.29-1.117,6.253,6.253,0,0,0,.971-1.725,6.142,6.142,0,0,0,.391-2.267v-6.951H340.9v-.419h4.857v12.445h2.311Z" transform="translate(-68.045 -6.775)"/><path class="b" d="M361,202.523h2.311V190.5H361v-.419h4.829V193.1h.061a6.177,6.177,0,0,1,.391-1.016,4.422,4.422,0,0,1,1.9-1.982,3.439,3.439,0,0,1,1.636-.357,2.954,2.954,0,0,1,1.2.223,2.579,2.579,0,0,1,.837.558,2.078,2.078,0,0,1,.48.793,2.849,2.849,0,0,1,.151.9,1.569,1.569,0,0,1-.447,1.318,1.753,1.753,0,0,1-1.05.329q-1.323,0-1.323-.837a1.311,1.311,0,0,1,.061-.436,3.386,3.386,0,0,1,.134-.329,2.5,2.5,0,0,0,.134-.38,2.3,2.3,0,0,0,.061-.6c0-.642-.352-.96-1.05-.96a1.881,1.881,0,0,0-1.022.363,3.791,3.791,0,0,0-1,1.05,6.483,6.483,0,0,0-.776,1.675,7.185,7.185,0,0,0-.318,2.233v6.867H368.5v.424H361Z" transform="translate(-80.977 -6.513)"/><path class="b" d="M384.21,195.431v1.413a19.31,19.31,0,0,0,.123,2.071,6.259,6.259,0,0,0,.525,1.949,3.613,3.613,0,0,0,1.2,1.44,3.557,3.557,0,0,0,2.116.558,5.3,5.3,0,0,0,2.172-.391,4.06,4.06,0,0,0,1.346-.932,4.238,4.238,0,0,0,.737-1.117c.156-.38.279-.687.357-.932l.452.095a9.6,9.6,0,0,1-.346.944,4.466,4.466,0,0,1-.81,1.228,4.891,4.891,0,0,1-1.5,1.083,5.583,5.583,0,0,1-2.445.463,7.872,7.872,0,0,1-2.792-.48A6.253,6.253,0,0,1,381.7,199.3a7.375,7.375,0,0,1-.508-2.792,6.528,6.528,0,0,1,.525-2.568,7.381,7.381,0,0,1,1.44-2.233,7.147,7.147,0,0,1,2.144-1.541,6.069,6.069,0,0,1,2.641-.586,6,6,0,0,1,1.8.3,5.232,5.232,0,0,1,1.787.971,5.36,5.36,0,0,1,1.379,1.787,6.086,6.086,0,0,1,.558,2.758Zm6.181-.419a5.648,5.648,0,0,0,.056-.782v-.748a6.14,6.14,0,0,0-.19-1.675,2.792,2.792,0,0,0-.558-1.05,1.9,1.9,0,0,0-.843-.558,3.276,3.276,0,0,0-1.061-.167,3.121,3.121,0,0,0-1.675.408,2.909,2.909,0,0,0-1.05,1.117,5.472,5.472,0,0,0-.586,1.591,11.826,11.826,0,0,0-.257,1.887Z" transform="translate(-89.894 -6.44)"/><path class="b" d="M405.94,198.717h.329a10.813,10.813,0,0,0,.558,1.457,5.076,5.076,0,0,0,.882,1.351,4.266,4.266,0,0,0,3.316,1.4,2.685,2.685,0,0,0,1.708-.558,2.267,2.267,0,0,0,.754-1.9,1.948,1.948,0,0,0-.586-1.608,4.578,4.578,0,0,0-1.368-.731l-2.339-.81c-.3-.1-.625-.229-.971-.38a3.59,3.59,0,0,1-.977-.625,3.06,3.06,0,0,1-.737-1.038,4.054,4.054,0,0,1-.279-1.619,3.724,3.724,0,0,1,.324-1.558,4.148,4.148,0,0,1,.9-1.262,3.971,3.971,0,0,1,1.362-.837,4.829,4.829,0,0,1,1.725-.3,4.242,4.242,0,0,1,1.066.106c.268.067.5.14.7.207s.38.14.558.212a1.48,1.48,0,0,0,.558.106.558.558,0,0,0,.48-.24h.329V193.5h-.329a13.3,13.3,0,0,0-.48-1.273,4.879,4.879,0,0,0-.648-1.117,2.658,2.658,0,0,0-.927-.754,2.965,2.965,0,0,0-1.306-.268,3.49,3.49,0,0,0-2.233.642,2.122,2.122,0,0,0-.793,1.731,1.675,1.675,0,0,0,.67,1.452,7.1,7.1,0,0,0,2,.916l2.189.72a6.36,6.36,0,0,1,2.311,1.318,2.909,2.909,0,0,1,.9,2.233,4.171,4.171,0,0,1-.318,1.591,3.841,3.841,0,0,1-.927,1.346,4.746,4.746,0,0,1-1.5.944,5.327,5.327,0,0,1-2.021.363,5.176,5.176,0,0,1-1.217-.134q-.558-.134-1.022-.285l-.854-.285a2.2,2.2,0,0,0-.72-.134.715.715,0,0,0-.48.134,1.25,1.25,0,0,0-.24.285h-.329Z" transform="translate(-100.826 -6.487)"/><path class="a" d="M177.66,179.294a14.455,14.455,0,0,0,2.328-.184,7.777,7.777,0,0,0,2.049-.609,5.136,5.136,0,0,0,1.563-1.117,3.2,3.2,0,0,0,.849-1.675h3.1v21.44h-4.16V182.019H177.66Z" transform="translate(0 -0.314)"/><path class="a" d="M207.488,197.294a11.245,11.245,0,0,1-3.283-.458,7.816,7.816,0,0,1-2.613-1.329,6.142,6.142,0,0,1-1.714-2.133,6.258,6.258,0,0,1-.62-2.792,5.125,5.125,0,0,1,1.15-3.4,5.549,5.549,0,0,1,3.115-1.837v-.061a4.936,4.936,0,0,1-2.445-1.675,4.411,4.411,0,0,1-.854-2.708,5.282,5.282,0,0,1,1.882-4.3,8.119,8.119,0,0,1,5.382-1.6,8.278,8.278,0,0,1,5.377,1.547,5.282,5.282,0,0,1,1.882,4.3,4.467,4.467,0,0,1-.849,2.708,4.98,4.98,0,0,1-2.451,1.675v.061a5.55,5.55,0,0,1,3.115,1.837,5.125,5.125,0,0,1,1.15,3.4,6.331,6.331,0,0,1-.614,2.792,6.18,6.18,0,0,1-1.72,2.133,7.817,7.817,0,0,1-2.613,1.329,11.233,11.233,0,0,1-3.277.458m0-2.753a4.79,4.79,0,0,0,3.16-1.044,3.584,3.584,0,0,0,1.267-2.937,3.35,3.35,0,0,0-1.267-2.792,5.527,5.527,0,0,0-6.326,0,3.35,3.35,0,0,0-1.267,2.792,3.584,3.584,0,0,0,1.267,2.937,4.8,4.8,0,0,0,3.166,1.094m0-16.783a4.065,4.065,0,0,0-2.6.843,2.915,2.915,0,0,0-1.061,2.434,2.792,2.792,0,0,0,1.027,2.339,4.656,4.656,0,0,0,5.265,0,2.792,2.792,0,0,0,1.033-2.339,2.92,2.92,0,0,0-1.066-2.434,4.059,4.059,0,0,0-2.6-.843" transform="translate(-9.538)"/></g></svg>